<?xml version="1.0" encoding="UTF-8" standalone="no"?>
<svg
   xmlns:dc="http://purl.org/dc/elements/1.1/"
   xmlns:cc="http://creativecommons.org/ns#"
   xmlns:rdf="http://www.w3.org/1999/02/22-rdf-syntax-ns#"
   xmlns:svg="http://www.w3.org/2000/svg"
   xmlns="http://www.w3.org/2000/svg"
   xmlns:sodipodi="http://sodipodi.sourceforge.net/DTD/sodipodi-0.dtd"
   xmlns:inkscape="http://www.inkscape.org/namespaces/inkscape"
   width="1280"
   height="374"
   viewBox="0 0 338.66667 98.954167"
   version="1.1"
   id="svg8"
   inkscape:version="1.0 (6e3e5246a0, 2020-05-07)"
   sodipodi:docname="RB_flyer.svg">
  <defs
     id="defs2" />
  <sodipodi:namedview
     units="px"
     id="base"
     pagecolor="#ffffff"
     bordercolor="#666666"
     borderopacity="1.0"
     inkscape:pageopacity="0.0"
     inkscape:pageshadow="2"
     inkscape:zoom="0.7071068"
     inkscape:cx="346.58673"
     inkscape:cy="235.86899"
     inkscape:document-units="mm"
     inkscape:current-layer="layer1"
     inkscape:document-rotation="0"
     showgrid="false"
     inkscape:window-width="2560"
     inkscape:window-height="1371"
     inkscape:window-x="0"
     inkscape:window-y="0"
     inkscape:window-maximized="1" />
  <metadata
     id="metadata5">
    <rdf:RDF>
      <cc:Work
         rdf:about="">
        <dc:format>image/svg+xml</dc:format>
        <dc:type
           rdf:resource="http://purl.org/dc/dcmitype/StillImage" />
        <dc:title></dc:title>
      </cc:Work>
    </rdf:RDF>
  </metadata>
  <g
     inkscape:label="Layer 1"
     inkscape:groupmode="layer"
     id="layer1">
    <g
       style="stroke-width:0.458004"
       transform="matrix(2.1833841,0,0,2.1833841,-169.60904,-115.37138)"
       id="g252">
      <circle
         r="0.9767915"
         cy="84.600967"
         cx="78.658516"
         id="path85"
         style="fill:#00618a;fill-opacity:1;stroke:none;stroke-width:0.458004;stroke-linecap:round;stroke-linejoin:round;stop-color:#000000" />
      <circle
         style="fill:#00618a;fill-opacity:1;stroke:none;stroke-width:0.458004;stroke-linecap:round;stroke-linejoin:round;stop-color:#000000"
         id="path85-3"
         cx="83.207664"
         cy="79.957031"
         r="0.9767915" />
      <circle
         style="fill:#00618a;fill-opacity:1;stroke:none;stroke-width:0.458004;stroke-linecap:round;stroke-linejoin:round;stop-color:#000000"
         id="path85-6"
         cx="88.025208"
         cy="77.454697"
         r="0.9767915" />
      <circle
         style="fill:#00618a;fill-opacity:1;stroke:none;stroke-width:0.458004;stroke-linecap:round;stroke-linejoin:round;stop-color:#000000"
         id="path85-7"
         cx="93.193535"
         cy="75.607208"
         r="0.9767915" />
      <circle
         style="fill:#00618a;fill-opacity:1;stroke:none;stroke-width:0.458004;stroke-linecap:round;stroke-linejoin:round;stop-color:#000000"
         id="path85-5"
         cx="98.50219"
         cy="74.391144"
         r="0.9767915" />
      <circle
         style="fill:#00618a;fill-opacity:1;stroke:none;stroke-width:0.458004;stroke-linecap:round;stroke-linejoin:round;stop-color:#000000"
         id="path85-35"
         cx="103.90437"
         cy="73.666168"
         r="0.9767915" />
      <circle
         style="fill:#00618a;fill-opacity:1;stroke:none;stroke-width:0.458004;stroke-linecap:round;stroke-linejoin:round;stop-color:#000000"
         id="path85-62"
         cx="109.35332"
         cy="73.596016"
         r="0.9767915" />
      <circle
         style="fill:#00618a;fill-opacity:1;stroke:none;stroke-width:0.458004;stroke-linecap:round;stroke-linejoin:round;stop-color:#000000"
         id="path85-9"
         cx="114.78153"
         cy="74.075073"
         r="0.9767915" />
      <circle
         style="fill:#00618a;fill-opacity:1;stroke:none;stroke-width:0.458004;stroke-linecap:round;stroke-linejoin:round;stop-color:#000000"
         id="path85-1"
         cx="120.0802"
         cy="75.223343"
         r="0.9767915" />
      <circle
         style="fill:#00618a;fill-opacity:1;stroke:none;stroke-width:0.458004;stroke-linecap:round;stroke-linejoin:round;stop-color:#000000"
         id="path85-2"
         cx="125.11887"
         cy="77.174072"
         r="0.9767915" />
      <circle
         style="fill:#00618a;fill-opacity:1;stroke:none;stroke-width:0.458004;stroke-linecap:round;stroke-linejoin:round;stop-color:#000000"
         id="path85-70"
         cx="129.78471"
         cy="79.89254"
         r="0.9767915" />
      <circle
         style="fill:#00618a;fill-opacity:1;stroke:none;stroke-width:0.458004;stroke-linecap:round;stroke-linejoin:round;stop-color:#000000"
         id="path85-93"
         cx="133.9942"
         cy="83.276176"
         r="0.9767915" />
      <circle
         style="fill:#00618a;fill-opacity:1;stroke:none;stroke-width:0.458004;stroke-linecap:round;stroke-linejoin:round;stop-color:#000000"
         id="path85-60"
         cx="137.96744"
         cy="87.056702"
         r="0.9767915" />
      <circle
         style="fill:#00618a;fill-opacity:1;stroke:none;stroke-width:0.458004;stroke-linecap:round;stroke-linejoin:round;stop-color:#000000"
         id="path85-626"
         cx="141.94221"
         cy="90.597687"
         r="0.9767915" />
      <circle
         style="fill:#00618a;fill-opacity:1;stroke:none;stroke-width:0.458004;stroke-linecap:round;stroke-linejoin:round;stop-color:#000000"
         id="path85-18"
         cx="146.44931"
         cy="93.635529"
         r="0.9767915" />
      <circle
         style="fill:#00618a;fill-opacity:1;stroke:none;stroke-width:0.458004;stroke-linecap:round;stroke-linejoin:round;stop-color:#000000"
         id="path85-79"
         cx="151.44827"
         cy="95.827164"
         r="0.9767915" />
      <circle
         style="fill:#00618a;fill-opacity:1;stroke:none;stroke-width:0.458004;stroke-linecap:round;stroke-linejoin:round;stop-color:#000000"
         id="path85-20"
         cx="156.80531"
         cy="96.732864"
         r="0.9767915" />
      <circle
         style="fill:#00618a;fill-opacity:1;stroke:none;stroke-width:0.458004;stroke-linecap:round;stroke-linejoin:round;stop-color:#000000"
         id="path85-23"
         cx="162.22849"
         cy="97.077301"
         r="0.9767915" />
      <circle
         style="fill:#00618a;fill-opacity:1;stroke:none;stroke-width:0.458004;stroke-linecap:round;stroke-linejoin:round;stop-color:#000000"
         id="path85-75"
         cx="167.69193"
         cy="97.14579"
         r="0.9767915" />
      <circle
         style="fill:#00618a;fill-opacity:1;stroke:none;stroke-width:0.458004;stroke-linecap:round;stroke-linejoin:round;stop-color:#000000"
         id="path85-92"
         cx="173.10379"
         cy="96.865158"
         r="0.9767915" />
      <circle
         style="fill:#00618a;fill-opacity:1;stroke:none;stroke-width:0.458004;stroke-linecap:round;stroke-linejoin:round;stop-color:#000000"
         id="path85-28"
         cx="178.51805"
         cy="96.311913"
         r="0.9767915" />
      <circle
         style="fill:#00618a;fill-opacity:1;stroke:none;stroke-width:0.458004;stroke-linecap:round;stroke-linejoin:round;stop-color:#000000"
         id="path85-97"
         cx="183.81787"
         cy="95.395844"
         r="0.9767915" />
      <circle
         style="fill:#00618a;fill-opacity:1;stroke:none;stroke-width:0.458004;stroke-linecap:round;stroke-linejoin:round;stop-color:#000000"
         id="path85-36"
         cx="189.17166"
         cy="94.152374"
         r="0.9767915" />
      <path
         sodipodi:nodetypes="ccccccsssccsscssssssssssssssssssssssssssssssscsssssssssssssszzccssssssssssssssssssssssssssssssssssscccssssssssssssssssssssssssssssssssssssssssssssscssssssssssssssssssssssssssssssssszcsccsssccccsssscssssssssssssssssssssssssssssssssssssssssssssscsssssssssssccssss"
         id="path83"
         d="m 193.30786,90.408167 -2.92692,-7.004607 c -0.43371,-1.001833 -0.65698,-1.396997 -0.78928,-1.396958 -0.95357,0.338678 -1.9274,0.73603 -2.8539,1.100624 l -9.36233,3.607496 -0.9698,0.280486 c -0.53057,0.169499 -0.93198,0.206132 -1.403,-0.101562 -0.61474,-0.401586 -0.79797,-0.781854 -0.66578,-1.655361 0.0671,-0.443275 0.35091,-1.238487 0.54878,-1.537542 0.25246,-0.381565 2.70592,-5.236798 3.28644,-6.503646 1.17776,-2.643863 2.66795,-5.710751 3.704,-8.520576 0.56877,-1.545785 0.16536,-3.496499 -0.95683,-4.626971 -0.0651,-0.06563 -0.30662,-0.352767 -0.53661,-0.638088 -0.22999,-0.285321 -0.72296,-0.764327 -1.0955,-1.064457 -3.53295,-2.846319 -4.82199,-3.894002 -5.29166,-4.300858 -0.30269,-0.262202 -1.08279,-0.931499 -1.73356,-1.487326 -1.92022,-1.640062 -2.42976,-2.21051 -2.54538,-2.849644 -0.05,-0.276372 -0.0255,-0.346534 0.19946,-0.5715 0.20589,-0.205894 0.32868,-0.256665 0.6228,-0.257536 0.40488,-0.0012 1.40636,0.191867 2.05592,0.39634 0.23077,0.07264 0.61177,0.161193 0.84667,0.196779 0.23489,0.03559 0.67474,0.124059 0.97742,0.196604 1.46233,0.350489 2.08844,0.485597 2.24092,0.483573 0.0916,-0.0012 0.47263,0.07091 0.84667,0.16029 0.9174,0.219208 1.96948,0.425892 2.83908,0.55775 0.39581,0.06002 0.84536,0.148992 0.999,0.19772 0.15362,0.04873 0.55367,0.112836 0.889,0.142462 0.33531,0.02963 0.80221,0.106838 1.03755,0.171583 0.23533,0.06474 0.78778,0.156023 1.22766,0.202841 0.43988,0.04682 1.04744,0.142385 1.35012,0.21237 0.30269,0.06999 0.72524,0.128039 0.93901,0.129009 0.21378,9.74e-4 0.74718,0.07428 1.18534,0.162917 0.43816,0.08863 1.10145,0.182237 1.47399,0.208004 0.37253,0.02577 0.88688,0.08806 1.143,0.138432 0.25611,0.05037 1.05621,0.148586 1.778,0.218257 0.72178,0.06967 1.44568,0.159835 1.60866,0.200363 0.16299,0.04053 0.71544,0.09673 1.22767,0.12489 1.41673,0.07789 2.18168,0.150912 2.39023,0.228175 0.10389,0.03849 1.11354,0.110647 2.24367,0.160349 1.13012,0.0497 2.17341,0.128364 2.31841,0.174803 0.14501,0.04644 1.47851,0.123844 2.96333,0.172009 1.48484,0.04816 3.36644,0.110401 4.18136,0.138302 1.99312,0.06824 7.63817,0.06306 9.525,-0.0087 0.8382,-0.0319 2.64453,-0.09271 4.01406,-0.135139 1.36954,-0.04243 2.66494,-0.117919 2.87867,-0.167751 0.21373,-0.04983 0.5029,-0.08952 0.6426,-0.08818 0.85015,0.0081 3.7766,-0.184527 4.0371,-0.265727 0.17146,-0.05345 0.69392,-0.10146 1.16101,-0.106691 0.77497,-0.0087 0.86601,0.0072 1.04098,0.181418 0.13324,0.132682 0.19173,0.290826 0.19173,0.518389 0,0.403826 -0.0798,0.503875 -2.91206,3.651017 -2.70535,3.006119 -3.55472,3.895797 -7.24013,7.583657 -4.40215,4.405081 -8.26578,8.001383 -11.94196,11.115695 -0.51223,0.433943 -1.15993,0.988166 -1.43933,1.231605 -0.64081,0.558333 -3.1005,2.58472 -3.79429,3.125881 -0.28804,0.224677 -0.71921,0.577071 -0.95815,0.783097 -0.23893,0.206026 -0.70151,0.574649 -1.02794,0.819162 -0.32644,0.244513 -1.05767,0.806519 -1.62496,1.248903 -0.56728,0.442383 -1.23761,0.956733 -1.48963,1.143 -0.252,0.186266 -0.73497,0.551857 -1.07327,0.812424 -1.67731,1.291892 -3.21841,2.403939 -3.6413,2.618574 -0.42289,0.214635 -0.83828,0.154045 -1.21119,-0.04254 -0.37291,-0.196585 -0.95522,-1.085408 -1.13055,-1.46389 z m 2.46387,0.678892 c 0.51298,-0.351655 1.92463,-1.397028 2.94405,-2.180166 0.36371,-0.2794 1.08884,-0.83185 1.61141,-1.227667 1.02197,-0.774089 3.24308,-2.520039 4.38789,-3.449208 0.38792,-0.314853 0.94747,-0.762958 1.24344,-0.995792 0.92254,-0.725739 2.77933,-2.281387 3.2872,-2.754077 0.26695,-0.24846 0.56967,-0.509762 0.67271,-0.580669 0.10303,-0.07091 0.60643,-0.491164 1.11867,-0.933902 4.04521,-3.496399 6.83587,-6.107983 11.26356,-10.540807 3.65173,-3.655963 7.7441,-8.006584 7.7441,-8.232801 0,-0.213563 -0.3593,-0.114863 -0.87873,0.241381 -0.28504,0.195501 -0.78497,0.53967 -1.11093,0.764819 -0.8365,0.577781 -2.78171,1.871043 -3.97934,2.645636 -0.5588,0.361419 -1.11125,0.727376 -1.22766,0.81324 -0.11642,0.08586 -0.44027,0.292315 -0.71967,0.458782 -0.2794,0.166467 -0.7747,0.470071 -1.10067,0.674675 -0.32596,0.204604 -0.85936,0.529529 -1.18533,0.722057 -0.32597,0.192527 -0.85937,0.517024 -1.18533,0.721106 -0.56933,0.35644 -1.53896,0.933064 -2.10239,1.250251 -0.14755,0.08306 -0.41036,0.235463 -0.58402,0.338667 -0.17365,0.103203 -0.66895,0.388921 -1.10067,0.63493 -0.4317,0.246008 -0.84207,0.482467 -0.91192,0.525464 -0.0699,0.043 -0.41275,0.23835 -0.762,0.434117 -0.34925,0.195768 -0.76835,0.43251 -0.93134,0.526096 -0.77934,0.447501 -0.99831,0.568879 -1.31233,0.727473 -0.18627,0.09407 -0.64347,0.340632 -1.016,0.547911 -0.37253,0.207279 -0.94403,0.515854 -1.27,0.685719 -0.32597,0.169867 -1.20227,0.627663 -1.94733,1.017325 -2.50667,1.31096 -6.97535,3.505189 -9.31334,4.573065 -0.23283,0.106346 -0.76623,0.353358 -1.18533,0.548914 -0.4191,0.195556 -0.9144,0.42232 -1.10067,0.50392 -0.18626,0.0816 -0.51011,0.226155 -0.71966,0.321233 -0.20955,0.09508 -0.56198,0.25303 -0.78317,0.351006 -0.22119,0.09797 -0.56409,0.25049 -0.762,0.33892 -0.19791,0.08843 -0.60748,0.263091 -0.91017,0.38813 -1.05659,0.436481 -1.4454,0.638381 -1.49916,0.778477 -0.0305,0.07944 0.0263,0.280836 0.12984,0.460803 1.14308,2.20358 3.29581,8.76116 4.26581,9.111955 0.41812,0.133958 0.43184,0.130848 0.93048,-0.210983 z m -19.19397,-4.901052 c 0.18627,-0.07212 0.51012,-0.183205 0.71967,-0.246864 0.20955,-0.06366 0.6477,-0.216488 0.97366,-0.33962 0.32597,-0.12313 0.76908,-0.273733 0.9847,-0.334671 0.21562,-0.06094 0.50137,-0.165936 0.635,-0.233329 0.13363,-0.06739 0.35727,-0.148245 0.49697,-0.179672 0.1397,-0.03143 0.3683,-0.109444 0.508,-0.173372 0.23306,-0.106648 0.75839,-0.303362 1.98967,-0.745044 0.25612,-0.09187 0.61807,-0.23445 0.80433,-0.316836 0.18627,-0.08239 0.47202,-0.196137 0.635,-0.25278 0.16299,-0.05664 0.48684,-0.179641 0.71967,-0.273328 0.23283,-0.09369 0.57573,-0.223779 0.762,-0.289093 0.18627,-0.06531 0.40061,-0.153939 0.47632,-0.196949 0.0757,-0.04301 0.45671,-0.200438 0.84667,-0.349843 0.38995,-0.149406 0.86141,-0.336413 1.04768,-0.415573 0.18626,-0.07916 0.54821,-0.230174 0.80433,-0.335587 0.25612,-0.105413 0.57997,-0.241985 0.71967,-0.303496 0.1397,-0.06151 0.50165,-0.213213 0.80433,-0.337119 0.30268,-0.123908 0.70273,-0.29587 0.889,-0.382139 0.4288,-0.1986 0.95099,-0.42627 1.651,-0.719819 0.30268,-0.126931 0.86387,-0.378428 1.24709,-0.558882 0.38322,-0.180454 0.71594,-0.328098 0.73938,-0.328098 0.0234,0 0.41474,-0.173418 0.86957,-0.385372 0.45482,-0.211955 0.97936,-0.455916 1.16563,-0.542136 1.26449,-0.585314 5.25197,-2.510355 6.26533,-3.02472 1.73452,-0.880419 4.14591,-2.121156 4.699,-2.417786 0.30268,-0.162333 0.87418,-0.467816 1.27,-0.678851 0.39582,-0.211034 0.96732,-0.524518 1.27,-0.696631 0.30268,-0.172112 0.66463,-0.365919 0.80433,-0.430683 0.1397,-0.06476 0.31115,-0.155361 0.381,-0.201331 0.0698,-0.04597 0.48095,-0.284861 0.91356,-0.530869 0.79042,-0.449489 0.89085,-0.505859 1.66878,-0.936627 0.23283,-0.12893 0.54716,-0.309697 0.6985,-0.401705 0.46607,-0.283351 0.8006,-0.481618 1.45249,-0.860864 0.34484,-0.200617 0.76394,-0.449092 0.93133,-0.552166 0.16739,-0.103075 0.39959,-0.236511 0.51601,-0.296524 0.11642,-0.06001 0.43148,-0.251905 0.70014,-0.426425 0.26867,-0.17452 0.51994,-0.31731 0.55838,-0.31731 0.0384,0 0.13886,-0.0762 0.22315,-0.169333 0.0843,-0.09313 0.19067,-0.169334 0.2364,-0.169334 0.0457,0 0.3434,-0.17145 0.66148,-0.381 0.31807,-0.20955 0.59741,-0.381 0.62072,-0.381 0.0233,0 0.28173,-0.159043 0.57424,-0.353429 0.29251,-0.194386 0.66517,-0.435762 0.82816,-0.536392 0.9148,-0.564815 4.36291,-2.847073 5.88433,-3.894749 0.46567,-0.320668 1.09039,-0.74729 1.38826,-0.948049 0.59202,-0.398994 0.76394,-0.580429 0.76805,-0.810537 0.004,-0.202682 -0.19457,-0.266496 -0.43239,-0.13922 -0.18466,0.09882 -0.82373,0.286711 -1.85092,0.544172 -0.25612,0.06419 -0.61807,0.174479 -0.80433,0.245078 -0.18627,0.0706 -0.44203,0.130033 -0.56837,0.132077 -0.12633,0.002 -0.42302,0.07992 -0.6593,0.173049 -0.23628,0.09313 -0.53509,0.169334 -0.66402,0.169334 -0.12894,0 -0.4609,0.07144 -0.7377,0.158755 -0.2768,0.08732 -0.69378,0.198636 -0.92661,0.247381 -0.23284,0.04874 -0.57574,0.128424 -0.762,0.177066 -0.6338,0.165514 -1.52257,0.365827 -2.11667,0.477059 -0.32597,0.06103 -0.70675,0.154834 -0.84618,0.208453 -0.13943,0.05362 -0.48233,0.128204 -0.762,0.165747 -0.27967,0.03754 -0.75614,0.128373 -1.05882,0.201847 -1.2391,0.300778 -2.10457,0.480358 -2.31507,0.480358 -0.12267,0 -0.49969,0.07324 -0.83781,0.162758 -0.33814,0.08952 -0.87742,0.188384 -1.19843,0.219705 -0.321,0.03132 -0.73536,0.110481 -0.92081,0.17591 -0.18544,0.06543 -0.47526,0.119524 -0.64402,0.120212 -0.16878,6.77e-4 -0.55451,0.06134 -0.85719,0.134784 -0.30269,0.07344 -0.91229,0.183272 -1.35467,0.244066 -0.87076,0.119665 -2.09153,0.316081 -3.19065,0.513364 -0.38114,0.06841 -1.10504,0.163868 -1.60867,0.212126 -0.50362,0.04826 -1.02998,0.125595 -1.16968,0.171861 -0.1397,0.04627 -0.76131,0.122557 -1.38137,0.169535 -0.62006,0.04698 -1.22895,0.124035 -1.3531,0.171237 -0.12415,0.0472 -0.77888,0.122619 -1.45496,0.167594 -0.67608,0.04498 -1.36259,0.119048 -1.52557,0.164605 -0.16298,0.04556 -0.98213,0.122456 -1.82033,0.170884 -0.8382,0.04843 -1.6383,0.1227 -1.778,0.165048 -0.24505,0.07428 -2.15022,0.222883 -3.72534,0.290569 -0.4191,0.01801 -0.89535,0.0559 -1.05833,0.0842 -0.37823,0.06568 -4.41436,0.310381 -5.969,0.361888 -0.65193,0.0216 -1.22343,0.07608 -1.27,0.121082 -0.0494,0.04775 0.18909,1.113071 0.18699,1.538024 -0.002,0.424952 -0.28579,1.456212 -0.28579,1.456212 l -0.31724,0.719667 c -1.17431,2.927028 -2.47534,5.686114 -3.72602,8.509 -0.12352,0.2794 -0.2594,0.56515 -0.30196,0.635 -0.0426,0.06985 -0.18399,0.354618 -0.31428,0.632819 -0.28495,0.608386 -1.2925,2.603157 -1.81862,3.600514 -1.06919,2.026879 -1.16996,2.261592 -1.16996,2.725322 0,0.229831 0.0691,0.424622 0.22172,0.62466 0.19743,0.258841 0.26467,0.290277 0.61383,0.286969 0.21567,-0.002 0.54452,-0.06272 0.73079,-0.134837 z M 185.0021,64.77471 c 1.00118,-0.02895 2.58233,-0.109844 3.51366,-0.179774 0.93134,-0.06993 2.38897,-0.158648 3.2392,-0.19715 0.85022,-0.0385 1.72652,-0.109301 1.94733,-0.157332 0.22081,-0.04803 0.45862,-0.08769 0.52847,-0.08813 0.58007,-0.0037 2.9841,-0.202306 3.22282,-0.266286 0.16601,-0.04449 0.87086,-0.120591 1.56634,-0.169112 0.69548,-0.04852 1.53121,-0.140518 1.85718,-0.20444 0.32596,-0.06392 0.95461,-0.14176 1.397,-0.172976 0.44238,-0.03122 0.96929,-0.09289 1.17091,-0.137056 0.20162,-0.04417 0.83027,-0.135208 1.397,-0.202318 0.9872,-0.1169 1.53654,-0.199784 3.69742,-0.557862 0.53552,-0.08874 1.24037,-0.199842 1.56633,-0.246894 0.32597,-0.04705 0.78317,-0.12173 1.016,-0.165952 1.05128,-0.199672 2.00348,-0.366956 2.667,-0.468549 0.39582,-0.0606 0.81492,-0.147041 0.93134,-0.192085 0.11641,-0.04504 0.45063,-0.10826 0.7427,-0.14048 0.29208,-0.03222 0.67713,-0.11013 0.85569,-0.173129 0.17857,-0.063 0.58729,-0.14175 0.9083,-0.175001 0.321,-0.03325 0.70968,-0.112051 0.86374,-0.17511 0.15404,-0.06306 0.47789,-0.138601 0.71966,-0.16787 0.24177,-0.02927 0.68171,-0.125538 0.97766,-0.21393 0.29595,-0.08839 0.63013,-0.160712 0.74262,-0.160712 0.11249,0 0.47995,-0.07287 0.81658,-0.16194 0.96358,-0.254953 1.76354,-0.444319 2.19133,-0.518731 0.21667,-0.03769 0.57862,-0.127224 0.80433,-0.198967 0.45455,-0.144478 1.36827,-0.365051 2.01905,-0.487403 0.4666,-0.08772 1.48167,-0.545807 1.48167,-0.668652 0,-0.11791 -0.39125,-0.191222 -0.69958,-0.131086 -0.65165,0.127092 -1.94452,0.211353 -3.99942,0.260654 -1.21073,0.02905 -2.39183,0.09737 -2.62467,0.151821 -0.59846,0.139967 -12.65922,0.138111 -13.081,-0.002 -0.17855,-0.05932 -1.18809,-0.116641 -2.54,-0.14422 -2.50819,-0.05117 -3.50272,-0.104971 -4.064,-0.219857 -0.20955,-0.04289 -1.21098,-0.118193 -2.22542,-0.167336 -1.01443,-0.04914 -1.93909,-0.125344 -2.0548,-0.169336 -0.11571,-0.04399 -0.79067,-0.117684 -1.49991,-0.163759 -0.70925,-0.04608 -1.65148,-0.141719 -2.09387,-0.212542 -0.44238,-0.07082 -1.02501,-0.129039 -1.29474,-0.129368 -0.26971,-3.39e-4 -0.76501,-0.05686 -1.10066,-0.125626 -0.33565,-0.06877 -1.12461,-0.182277 -1.75326,-0.252248 -0.62865,-0.06997 -1.26016,-0.161535 -1.40335,-0.203477 -0.14318,-0.04194 -0.61943,-0.10457 -1.05833,-0.139173 -0.43889,-0.0346 -0.88548,-0.09605 -0.99241,-0.136556 -0.10694,-0.0405 -0.64034,-0.132158 -1.18533,-0.203678 -0.545,-0.07152 -1.23857,-0.185298 -1.54125,-0.252841 -0.30268,-0.06754 -0.68629,-0.123599 -0.85247,-0.124569 -0.16617,-9.74e-4 -0.49002,-0.05749 -0.71966,-0.125598 -0.22965,-0.06811 -0.74139,-0.16247 -1.13721,-0.209692 -0.39581,-0.04722 -0.87206,-0.142226 -1.05833,-0.211117 -0.18627,-0.06889 -0.49658,-0.126931 -0.68958,-0.128975 -0.193,-0.002 -0.59305,-0.07612 -0.889,-0.164616 -0.29595,-0.0885 -0.77604,-0.185618 -1.06687,-0.215828 -0.29083,-0.03021 -0.65278,-0.105978 -0.80433,-0.168373 -0.15156,-0.0624 -0.48433,-0.141501 -0.73951,-0.175793 -0.25518,-0.03429 -0.60299,-0.1114 -0.77291,-0.171354 -0.16993,-0.05995 -0.53265,-0.136226 -0.80605,-0.169498 -0.27339,-0.03327 -0.59233,-0.108584 -0.70875,-0.167363 -0.17126,-0.08647 -0.61871,-0.177422 -1.50714,-0.306354 -0.25046,-0.03635 -0.35553,0.03047 -0.35553,0.226109 0,0.315501 0.19737,0.567836 0.9636,1.231962 0.37807,0.327698 0.78265,0.682266 0.89907,0.787929 1.90879,1.656559 3.90017,3.295024 5.715,4.739739 2.67616,2.1288 2.70315,2.154474 3.78833,3.604313 0.34168,0.456489 0.84975,0.785463 1.12234,0.726697 0.0931,-0.02008 0.98848,-0.06019 1.98967,-0.08913 z"
         style="fill:#00618a;fill-opacity:1;stroke-width:0.458003" />
    </g>
  </g>
</svg>
